<svg xmlns="http://www.w3.org/2000/svg" viewBox="0 0 100 100">
  <style>
    .ghost { fill: #f1f1f1; }
    .eye { fill: #2d3748; }
    .shadow { fill: #2d3748; opacity: 0.1; }
    @media (prefers-color-scheme: dark) {
      .ghost { fill: #2d3748; }
      .eye { fill: #f1f1f1; }
      .shadow { fill: #000; opacity: 0.2; }
    }
  </style>
  <!-- Shadow -->
  <ellipse class="shadow" cx="50" cy="95" rx="35" ry="5"/>
  <!-- Ghost body -->
  <path class="ghost" d="M85,85c0,0-15,10-35,10S15,85,15,85V40c0-19.33,15.67-35,35-35s35,15.67,35,35V85z"/>
  <!-- Ghost waves -->
  <path class="ghost" d="M15,85c0,0,5,10,20,10s20-10,20-10s5,10,20,10s20-10,20-10"/>
  <!-- Eyes -->
  <circle class="eye" cx="40" cy="45" r="6"/>
  <circle class="eye" cx="60" cy="45" r="6"/>
  <!-- Cute mouth -->
  <path class="eye" d="M45,60 Q50,65 55,60" stroke="#2d3748" stroke-width="3" fill="none"/>
</svg> 